<?xml version="1.0" encoding="UTF-8"?>
<svg version="1.1" xmlns="http://www.w3.org/2000/svg" width="500" height="500">
<path d="M0 0 C165 0 330 0 500 0 C500 165 500 330 500 500 C335 500 170 500 0 500 C0 335 0 170 0 0 Z " fill="#FEFEFE" transform="translate(0,0)"/>
<path d="M0 0 C14.29208186 -0.06984546 28.58412239 -0.12298555 42.87634087 -0.15543652 C49.51447338 -0.17101988 56.15245668 -0.19212267 62.79052734 -0.22631836 C69.20963811 -0.25917504 75.62863642 -0.27690798 82.04782486 -0.28463173 C84.48353976 -0.29012838 86.91924926 -0.30086032 89.35491562 -0.31719017 C106.78170581 -0.4292651 123.71904077 0.04870114 140.25 6.1875 C141.07862549 6.48720703 141.90725098 6.78691406 142.76098633 7.09570312 C155.68130399 11.94441504 167.31956973 19.10444905 177 29 C180.22154537 27.55610917 182.58746389 25.74161778 185.25 23.4375 C209.70519493 3.67971055 238.22335711 -0.65645872 268.7578125 -0.42578125 C271.28416688 -0.42084668 273.81052494 -0.41755476 276.33688354 -0.41581726 C282.25320627 -0.4072738 288.16921977 -0.38030943 294.08543575 -0.34461802 C300.16063033 -0.30928863 306.23575532 -0.29798967 312.31103706 -0.28938007 C318.75165174 -0.28021866 325.19222822 -0.25956841 331.6328125 -0.23828125 C332.86366703 -0.2348855 334.09452156 -0.23148975 335.36267471 -0.2279911 C338.81621886 -0.2164854 342.26964658 -0.19798477 345.72314453 -0.17700195 C347.27195312 -0.1729686 347.27195312 -0.1729686 348.85205078 -0.16885376 C350.25174606 -0.1581208 350.25174606 -0.1581208 351.67971802 -0.14717102 C352.49479387 -0.14289754 353.30986973 -0.13862406 354.14964485 -0.13422108 C356 0 356 0 357 1 C357.07319621 3.69654854 357.09242537 6.36691458 357.0625 9.0625 C357.05798828 9.82111328 357.05347656 10.57972656 357.04882812 11.36132812 C357.0370068 13.24091871 357.01907078 15.12046899 357 17 C357.6612085 16.99476318 358.32241699 16.98952637 359.00366211 16.98413086 C361.98159851 16.96342344 364.95951982 16.95035988 367.9375 16.9375 C368.97841797 16.92912109 370.01933594 16.92074219 371.09179688 16.91210938 C372.08115234 16.90888672 373.07050781 16.90566406 374.08984375 16.90234375 C375.46450806 16.89448853 375.46450806 16.89448853 376.86694336 16.88647461 C379 17 379 17 380 18 C380.07325168 20.86267567 380.09238205 23.700719 380.0625 26.5625 C380.05798828 27.36880859 380.05347656 28.17511719 380.04882812 29.00585938 C380.03700518 31.00393756 380.01906914 33.00197783 380 35 C380.85549438 34.99214478 380.85549438 34.99214478 381.72827148 34.98413086 C384.29800323 34.96341779 386.86771747 34.9503581 389.4375 34.9375 C390.78424805 34.92493164 390.78424805 34.92493164 392.15820312 34.91210938 C393.01220703 34.90888672 393.86621094 34.90566406 394.74609375 34.90234375 C395.53685303 34.89710693 396.3276123 34.89187012 397.14233398 34.88647461 C399 35 399 35 400 36 C400.10026018 39.06960855 400.13437673 42.11679728 400.12698364 45.18688965 C400.12854363 46.16300752 400.13010362 47.13912539 400.13171089 48.1448226 C400.13572543 51.44226651 400.13252949 54.73966505 400.12939453 58.03710938 C400.13074837 60.3902845 400.1325282 62.74345941 400.13470459 65.09663391 C400.13928099 71.50759966 400.13748852 77.91854941 400.1343255 84.32951546 C400.13165874 90.34484185 400.13378434 96.36016794 400.1352527 102.37549442 C400.1381076 115.01558102 400.13482032 127.65566038 400.12945233 140.29574579 C400.12498428 151.15305941 400.12576021 162.01036235 400.13037109 172.86767578 C400.13571669 185.46102083 400.1378329 198.05435953 400.13475883 210.64770555 C400.13317463 217.31947596 400.13300363 223.99123994 400.13629532 230.66300964 C400.13917275 236.93376083 400.1372007 243.20449173 400.13140106 249.47524071 C400.13007277 251.78400323 400.13046873 254.09276745 400.13266373 256.40152931 C400.13537255 259.53874647 400.1319974 262.67589748 400.12698364 265.81311035 C400.12921436 266.73945203 400.13144509 267.66579371 400.13374341 268.62020636 C400.11414981 274.88585019 400.11414981 274.88585019 399 276 C397.53271166 276.11783891 396.05987429 276.1673296 394.58802795 276.18945312 C393.63152973 276.20620968 392.67503151 276.22296623 391.68954849 276.24023056 C390.62805462 276.25376698 389.56656075 276.26730339 388.47290039 276.28125 C387.3569688 276.2993082 386.24103722 276.31736641 385.09128952 276.33597183 C381.34346861 276.39536674 377.59558195 276.44766821 373.84765625 276.5 C371.20708009 276.54043109 368.5665123 276.58124564 365.9259491 276.62249756 C358.05058814 276.74426876 350.1751063 276.85684413 342.29959297 276.96825218 C338.56239156 277.02128886 334.82520273 277.07519663 331.0880127 277.12902832 C308.4864854 277.45407886 308.4864854 277.45407886 297.23149073 277.60983872 C281.40071088 277.82893245 265.57084308 278.06917291 249.7414341 278.37372971 C198.19453925 279.34994143 146.67209741 278.77207013 95.125 278.125 C94.22236231 278.11367476 93.31972462 278.10234951 92.38973427 278.09068108 C67.32554512 277.77524274 42.2619446 277.42497376 17.1988163 277.03421974 C15.02823327 277.00043939 12.85764591 276.9669499 10.6870575 276.93351746 C2.94863313 276.81393061 -4.78965556 276.68813996 -12.52780533 276.551754 C-14.78325939 276.51244186 -17.03874039 276.47464215 -19.29424667 276.43844986 C-22.3110212 276.38940801 -25.32761121 276.33416741 -28.34423828 276.27685547 C-29.2217638 276.26371685 -30.09928932 276.25057823 -31.00340652 276.23704147 C-36.88541337 276.11458663 -36.88541337 276.11458663 -38 275 C-38.10026018 271.93039145 -38.13437673 268.88320272 -38.12698364 265.81311035 C-38.12854363 264.83699248 -38.13010362 263.86087461 -38.13171089 262.8551774 C-38.13572543 259.55773349 -38.13252949 256.26033495 -38.12939453 252.96289062 C-38.13074837 250.6097155 -38.1325282 248.25654059 -38.13470459 245.90336609 C-38.13928099 239.49240034 -38.13748852 233.08145059 -38.1343255 226.67048454 C-38.13165874 220.65515815 -38.13378434 214.63983206 -38.1352527 208.62450558 C-38.1381076 195.98441898 -38.13482032 183.34433962 -38.12945233 170.70425421 C-38.12498428 159.84694059 -38.12576021 148.98963765 -38.13037109 138.13232422 C-38.13571669 125.53897917 -38.1378329 112.94564047 -38.13475883 100.35229445 C-38.13317463 93.68052404 -38.13300363 87.00876006 -38.13629532 80.33699036 C-38.13917275 74.06623917 -38.1372007 67.79550827 -38.13140106 61.52475929 C-38.13007277 59.21599677 -38.13046873 56.90723255 -38.13266373 54.59847069 C-38.13537255 51.46125353 -38.1319974 48.32410252 -38.12698364 45.18688965 C-38.12921436 44.26054797 -38.13144509 43.33420629 -38.13374341 42.37979364 C-38.11414981 36.11414981 -38.11414981 36.11414981 -37 35 C-35.65732587 34.91368126 -34.31025678 34.89293527 -32.96484375 34.90234375 C-32.15595703 34.90556641 -31.34707031 34.90878906 -30.51367188 34.91210938 C-29.66353516 34.92048828 -28.81339844 34.92886719 -27.9375 34.9375 C-27.08349609 34.94201172 -26.22949219 34.94652344 -25.34960938 34.95117188 C-23.23304337 34.96299627 -21.11651315 34.98093231 -19 35 C-19.02320312 33.86820313 -19.04640625 32.73640625 -19.0703125 31.5703125 C-19.08906901 30.08854825 -19.10726934 28.60677688 -19.125 27.125 C-19.14175781 26.37863281 -19.15851562 25.63226563 -19.17578125 24.86328125 C-19.1933959 22.90805539 -19.10320189 20.95257979 -19 19 C-17 17 -17 17 -13.0859375 16.8046875 C-11.51549182 16.81613444 -9.94514302 16.84211285 -8.375 16.875 C-5.61125 16.91625 -2.8475 16.9575 0 17 C0 11.39 0 5.78 0 0 Z " fill="#F7F7F7" transform="translate(69,111)"/>
<path d="M0 0 C0 77.55 0 155.1 0 235 C-34.65 235.33 -69.3 235.66 -105 236 C-129.8534055 240.14223425 -149.07191448 248.17995567 -168.85058594 263.80029297 C-172.90578313 267 -172.90578313 267 -174 267 C-174.22829846 237.36021849 -174.405185 207.72047866 -174.51065329 178.08000205 C-174.52315984 174.57791007 -174.53610311 171.07581984 -174.54931641 167.57373047 C-174.55325106 166.52795934 -174.55325106 166.52795934 -174.55726521 165.46106152 C-174.60073724 154.18345695 -174.67955919 142.90636394 -174.77152796 131.62906249 C-174.86516011 120.05092816 -174.91986392 108.47309157 -174.94088495 96.89459646 C-174.95391504 90.39360296 -174.98450612 83.89376833 -175.05730057 77.39314651 C-175.12529611 71.27133863 -175.14609223 65.15116423 -175.13107681 59.02901459 C-175.13382271 56.78521972 -175.15364676 54.54136895 -175.19205475 52.29790115 C-175.48195417 34.48732486 -175.48195417 34.48732486 -171.8335228 29.49209213 C-169.34881966 26.95487313 -166.94763419 24.96566156 -164 23 C-162.70896794 22.00477152 -161.41843936 21.00888868 -160.12890625 20.01171875 C-158.94999724 19.22200655 -157.76113101 18.44694422 -156.5625 17.6875 C-155.59413208 17.06343262 -155.59413208 17.06343262 -154.60620117 16.42675781 C-146.21492538 11.11954426 -137.6399832 7.75315431 -128.1875 4.8125 C-127.39384033 4.56209961 -126.60018066 4.31169922 -125.7824707 4.05371094 C-87.56885895 -7.30927431 -28.48092172 0 0 0 Z " fill="#F7F7F7" transform="translate(421,115)"/>
<path d="M0 0 C14.29208186 -0.06984546 28.58412239 -0.12298555 42.87634087 -0.15543652 C49.51447338 -0.17101988 56.15245668 -0.19212267 62.79052734 -0.22631836 C69.20963811 -0.25917504 75.62863642 -0.27690798 82.04782486 -0.28463173 C84.48353976 -0.29012838 86.91924926 -0.30086032 89.35491562 -0.31719017 C106.78170581 -0.4292651 123.71904077 0.04870114 140.25 6.1875 C141.07862549 6.48720703 141.90725098 6.78691406 142.76098633 7.09570312 C155.68130399 11.94441504 167.31956973 19.10444905 177 29 C180.22154537 27.55610917 182.58746389 25.74161778 185.25 23.4375 C209.70519493 3.67971055 238.22335711 -0.65645872 268.7578125 -0.42578125 C271.28416688 -0.42084668 273.81052494 -0.41755476 276.33688354 -0.41581726 C282.25320627 -0.4072738 288.16921977 -0.38030943 294.08543575 -0.34461802 C300.16063033 -0.30928863 306.23575532 -0.29798967 312.31103706 -0.28938007 C318.75165174 -0.28021866 325.19222822 -0.25956841 331.6328125 -0.23828125 C332.86366703 -0.2348855 334.09452156 -0.23148975 335.36267471 -0.2279911 C338.81621886 -0.2164854 342.26964658 -0.19798477 345.72314453 -0.17700195 C347.27195312 -0.1729686 347.27195312 -0.1729686 348.85205078 -0.16885376 C350.25174606 -0.1581208 350.25174606 -0.1581208 351.67971802 -0.14717102 C352.49479387 -0.14289754 353.30986973 -0.13862406 354.14964485 -0.13422108 C356 0 356 0 357 1 C357.07319621 3.69654854 357.09242537 6.36691458 357.0625 9.0625 C357.05798828 9.82111328 357.05347656 10.57972656 357.04882812 11.36132812 C357.0370068 13.24091871 357.01907078 15.12046899 357 17 C357.6612085 16.99476318 358.32241699 16.98952637 359.00366211 16.98413086 C361.98159851 16.96342344 364.95951982 16.95035988 367.9375 16.9375 C368.97841797 16.92912109 370.01933594 16.92074219 371.09179688 16.91210938 C372.08115234 16.90888672 373.07050781 16.90566406 374.08984375 16.90234375 C375.46450806 16.89448853 375.46450806 16.89448853 376.86694336 16.88647461 C379 17 379 17 380 18 C380.07325168 20.86267567 380.09238205 23.700719 380.0625 26.5625 C380.05798828 27.36880859 380.05347656 28.17511719 380.04882812 29.00585938 C380.03700518 31.00393756 380.01906914 33.00197783 380 35 C380.85549438 34.99214478 380.85549438 34.99214478 381.72827148 34.98413086 C384.29800323 34.96341779 386.86771747 34.9503581 389.4375 34.9375 C390.78424805 34.92493164 390.78424805 34.92493164 392.15820312 34.91210938 C393.01220703 34.90888672 393.86621094 34.90566406 394.74609375 34.90234375 C395.53685303 34.89710693 396.3276123 34.89187012 397.14233398 34.88647461 C399 35 399 35 400 36 C400.10026018 39.06960855 400.13437673 42.11679728 400.12698364 45.18688965 C400.12854363 46.16300752 400.13010362 47.13912539 400.13171089 48.1448226 C400.13572543 51.44226651 400.13252949 54.73966505 400.12939453 58.03710938 C400.13074837 60.3902845 400.1325282 62.74345941 400.13470459 65.09663391 C400.13928099 71.50759966 400.13748852 77.91854941 400.1343255 84.32951546 C400.13165874 90.34484185 400.13378434 96.36016794 400.1352527 102.37549442 C400.1381076 115.01558102 400.13482032 127.65566038 400.12945233 140.29574579 C400.12498428 151.15305941 400.12576021 162.01036235 400.13037109 172.86767578 C400.13571669 185.46102083 400.1378329 198.05435953 400.13475883 210.64770555 C400.13317463 217.31947596 400.13300363 223.99123994 400.13629532 230.66300964 C400.13917275 236.93376083 400.1372007 243.20449173 400.13140106 249.47524071 C400.13007277 251.78400323 400.13046873 254.09276745 400.13266373 256.40152931 C400.13537255 259.53874647 400.1319974 262.67589748 400.12698364 265.81311035 C400.12921436 266.73945203 400.13144509 267.66579371 400.13374341 268.62020636 C400.11414981 274.88585019 400.11414981 274.88585019 399 276 C397.53271166 276.11783891 396.05987429 276.1673296 394.58802795 276.18945312 C393.63152973 276.20620968 392.67503151 276.22296623 391.68954849 276.24023056 C390.62805462 276.25376698 389.56656075 276.26730339 388.47290039 276.28125 C387.3569688 276.2993082 386.24103722 276.31736641 385.09128952 276.33597183 C381.34346861 276.39536674 377.59558195 276.44766821 373.84765625 276.5 C371.20708009 276.54043109 368.5665123 276.58124564 365.9259491 276.62249756 C358.05058814 276.74426876 350.1751063 276.85684413 342.29959297 276.96825218 C338.56239156 277.02128886 334.82520273 277.07519663 331.0880127 277.12902832 C308.4864854 277.45407886 308.4864854 277.45407886 297.23149073 277.60983872 C281.40071088 277.82893245 265.57084308 278.06917291 249.7414341 278.37372971 C198.19453925 279.34994143 146.67209741 278.77207013 95.125 278.125 C94.22236231 278.11367476 93.31972462 278.10234951 92.38973427 278.09068108 C67.32554512 277.77524274 42.2619446 277.42497376 17.1988163 277.03421974 C15.02823327 277.00043939 12.85764591 276.9669499 10.6870575 276.93351746 C2.94863313 276.81393061 -4.78965556 276.68813996 -12.52780533 276.551754 C-14.78325939 276.51244186 -17.03874039 276.47464215 -19.29424667 276.43844986 C-22.3110212 276.38940801 -25.32761121 276.33416741 -28.34423828 276.27685547 C-29.2217638 276.26371685 -30.09928932 276.25057823 -31.00340652 276.23704147 C-36.88541337 276.11458663 -36.88541337 276.11458663 -38 275 C-38.10026018 271.93039145 -38.13437673 268.88320272 -38.12698364 265.81311035 C-38.12854363 264.83699248 -38.13010362 263.86087461 -38.13171089 262.8551774 C-38.13572543 259.55773349 -38.13252949 256.26033495 -38.12939453 252.96289062 C-38.13074837 250.6097155 -38.1325282 248.25654059 -38.13470459 245.90336609 C-38.13928099 239.49240034 -38.13748852 233.08145059 -38.1343255 226.67048454 C-38.13165874 220.65515815 -38.13378434 214.63983206 -38.1352527 208.62450558 C-38.1381076 195.98441898 -38.13482032 183.34433962 -38.12945233 170.70425421 C-38.12498428 159.84694059 -38.12576021 148.98963765 -38.13037109 138.13232422 C-38.13571669 125.53897917 -38.1378329 112.94564047 -38.13475883 100.35229445 C-38.13317463 93.68052404 -38.13300363 87.00876006 -38.13629532 80.33699036 C-38.13917275 74.06623917 -38.1372007 67.79550827 -38.13140106 61.52475929 C-38.13007277 59.21599677 -38.13046873 56.90723255 -38.13266373 54.59847069 C-38.13537255 51.46125353 -38.1319974 48.32410252 -38.12698364 45.18688965 C-38.12921436 44.26054797 -38.13144509 43.33420629 -38.13374341 42.37979364 C-38.11414981 36.11414981 -38.11414981 36.11414981 -37 35 C-35.65732587 34.91368126 -34.31025678 34.89293527 -32.96484375 34.90234375 C-32.15595703 34.90556641 -31.34707031 34.90878906 -30.51367188 34.91210938 C-29.66353516 34.92048828 -28.81339844 34.92886719 -27.9375 34.9375 C-27.08349609 34.94201172 -26.22949219 34.94652344 -25.34960938 34.95117188 C-23.23304337 34.96299627 -21.11651315 34.98093231 -19 35 C-19.02320312 33.86820313 -19.04640625 32.73640625 -19.0703125 31.5703125 C-19.08906901 30.08854825 -19.10726934 28.60677688 -19.125 27.125 C-19.14175781 26.37863281 -19.15851562 25.63226563 -19.17578125 24.86328125 C-19.1933959 22.90805539 -19.10320189 20.95257979 -19 19 C-17 17 -17 17 -13.0859375 16.8046875 C-11.51549182 16.81613444 -9.94514302 16.84211285 -8.375 16.875 C-5.61125 16.91625 -2.8475 16.9575 0 17 C0 11.39 0 5.78 0 0 Z M5 4 C5 81.55 5 159.1 5 239 C40.64 239.33 76.28 239.66 113 240 C132.9031226 244.68308767 132.9031226 244.68308767 140.125 247.6875 C140.95555908 248.0263623 141.78611816 248.36522461 142.6418457 248.71435547 C152.34307748 252.80134063 160.98399206 258.31672713 169.71606445 264.14208984 C170.52018265 264.67845062 171.32430084 265.2148114 172.15278625 265.76742554 C172.76236679 266.17417511 173.37194733 266.58092468 174 267 C174.33297758 237.32635837 174.6196312 207.65255268 174.84177024 177.97787139 C174.86804635 174.47320067 174.89471674 170.96853306 174.92163086 167.46386719 C174.92698227 166.76616181 174.93233368 166.06845644 174.93784725 165.34960848 C175.02539653 154.05766248 175.1448707 142.76626911 175.27618057 131.4747569 C175.41024122 119.88547147 175.50923165 108.29627871 175.5777635 96.70641947 C175.61735968 90.19766041 175.67286798 83.68991277 175.76637459 77.1816864 C175.8538952 71.05520664 175.89896639 64.92987705 175.91156769 58.80279922 C175.92365878 56.55488807 175.95122675 54.30699837 175.99547386 52.0594902 C176.65986074 40.50530771 176.65986074 40.50530771 173.03642082 29.92266846 C170.7733985 27.86873277 168.69342397 26.41977759 166 25 C165.03191406 24.29488281 164.06382812 23.58976562 163.06640625 22.86328125 C160.39547888 21.20905634 157.71379548 19.58304736 155 18 C154.2678125 17.55914062 153.535625 17.11828125 152.78125 16.6640625 C147.28769835 13.6271343 141.47228591 11.72605938 135.5 9.875 C134.73631104 9.63322021 133.97262207 9.39144043 133.18579102 9.14233398 C92.71327108 -2.8527199 43.07723997 4 5 4 Z M219.0625 10.3125 C218.17699463 10.61881348 217.29148926 10.92512695 216.37915039 11.24072266 C204.93374384 15.30903008 195.30981329 21.1715671 186 29 C185.33572746 29.39958168 184.67145493 29.79916336 183.98705292 30.21085358 C180.68166461 32.6263887 178.44183613 34.98004936 177.54318237 39.08844185 C176.77992482 45.82763302 176.99939657 52.61902292 177.09179688 59.38867188 C177.0940545 61.69524049 177.09278479 64.00181485 177.08825684 66.30838013 C177.0859632 72.56027835 177.13296883 78.81094656 177.1888485 85.06255913 C177.23888785 91.59946314 177.24356065 98.13639593 177.25305176 104.67346191 C177.27375235 115.64222515 177.32504027 126.61055792 177.39648438 137.57910156 C177.46997746 148.87400061 177.52657471 160.16877714 177.56054688 171.46386719 C177.56264866 172.16072236 177.56475045 172.85757754 177.56691593 173.57554954 C177.57735664 177.07165637 177.5874662 180.56776407 177.59741116 184.06387234 C177.68027222 213.04287945 177.82171023 242.02142891 178 271 C178.53984024 270.59284256 179.07968048 270.18568512 179.63587952 269.76618958 C180.34908859 269.22951157 181.06229767 268.69283356 181.79711914 268.13989258 C182.50195938 267.60898514 183.20679962 267.0780777 183.93299866 266.53108215 C198.22653964 255.94348114 213.65173337 247.15411347 231 243 C232.10085938 242.65839844 233.20171875 242.31679688 234.3359375 241.96484375 C272.27637739 231.9741309 312.76797588 239.37363832 352 239 C352 161.45 352 83.9 352 4 C287.45802883 -0.07351672 287.45802883 -0.07351672 219.0625 10.3125 Z " fill="#514B48" transform="translate(69,111)"/>
<path d="M0 0 C6.27 0 12.54 0 19 0 C19 77.55 19 155.1 19 235 C-37.43 235.495 -37.43 235.495 -95 236 C-112.42347556 237.83405006 -128.89042557 240.70484016 -145.875 244.5 C-146.54712524 244.6494809 -147.21925049 244.79896179 -147.91174316 244.95297241 C-155.06280366 246.54885213 -162.11233649 248.19484516 -169.05126953 250.56445312 C-171 251 -171 251 -174 250 C-122.19527566 209.26863228 -72.24229343 220.65359902 -1 220 C-0.505 111.1 -0.505 111.1 0 0 Z " fill="#F6F6F5" transform="translate(426,133)"/>
<path d="M0 0 C4.62 0 9.24 0 14 0 C14.33 72.6 14.66 145.2 15 220 C50.97 220.33 86.94 220.66 124 221 C146.30192481 225.95598329 167.58809648 232.62457642 185 248 C180.83422831 249.38859056 177.74080544 247.97227258 173.6875 246.75 C172.03595503 246.27456019 170.38360113 245.8019218 168.73046875 245.33203125 C167.51109619 244.98519287 167.51109619 244.98519287 166.26708984 244.63134766 C113.46481294 229.92677216 50.82582715 235.43815368 0 235 C0 157.45 0 79.9 0 0 Z " fill="#F5F5F5" transform="translate(55,133)"/>
<path d="M0 0 C4.95 0 9.9 0 15 0 C15.33 72.93 15.66 145.86 16 221 C70.45 221.495 70.45 221.495 126 222 C145.57182628 223.1512839 145.57182628 223.1512839 152.6640625 224.48828125 C153.47007904 224.63275192 154.27609558 224.7772226 155.10653687 224.92607117 C156.77892701 225.22807413 158.45046671 225.534827 160.12109375 225.84643555 C162.6281117 226.3130792 165.13782537 226.76212669 167.6484375 227.20898438 C177.58314631 229.00663449 187.2926072 231.21721406 197 234 C197 234.33 197 234.66 197 235 C175.60253128 235.08045171 154.21262916 234.85730767 132.81719208 234.59472656 C128.58854988 234.54313497 124.35988723 234.49333289 120.13122559 234.44335938 C107.85829612 234.29732161 95.58539992 234.14849992 83.3125 234 C42.0728125 233.505 42.0728125 233.505 0 233 C0 156.11 0 79.22 0 0 Z " fill="#5170FB" transform="translate(35,150)"/>
<path d="M0 0 C4.95 0 9.9 0 15 0 C15 76.89 15 153.78 15 233 C-92.42840935 234.15514419 -92.42840935 234.15514419 -130.27844238 234.06866455 C-135.63549303 234.05778018 -140.99255052 234.05373915 -146.34960938 234.04882812 C-156.56642089 234.03859869 -166.78320731 234.02194655 -177 234 C-173.32517827 230.32517827 -167.43560978 230.0852345 -162.45288086 229.02319336 C-160.41652103 228.58488938 -158.38745412 228.12086977 -156.35742188 227.65429688 C-105.9600671 216.80274127 -49.37998646 222 0 222 C0 148.74 0 75.48 0 0 Z " fill="#516FFA" transform="translate(449,150)"/>
</svg>
